<?xml version="1.0" encoding="utf-8"?>
<!-- Svg Vector Icons : http://www.onlinewebfonts.com/icon -->
<!DOCTYPE svg PUBLIC "-//W3C//DTD SVG 1.1//EN" "http://www.w3.org/Graphics/SVG/1.1/DTD/svg11.dtd">
<svg version="1.1" xmlns="http://www.w3.org/2000/svg" xmlns:xlink="http://www.w3.org/1999/xlink" x="0px" y="0px" viewBox="0 0 256 256" enable-background="new 0 0 256 256" xml:space="preserve">
<metadata> Svg Vector Icons : http://www.onlinewebfonts.com/icon </metadata>
<g><g><g><path fill="#000000" d="M151.1,6.4c-2.8,1.5-4.5,3.9-7.3,10.2c-10.3,23.4-23.4,42.7-44.8,66c-4.2,4.6-11.5,11.9-16.3,16.1c-12.5,11.4-13.3,12.2-14.3,15.6c-1.3,4.4-1.3,111.3,0,114.5c1,2.5,3.2,3.4,9.5,3.9c10,0.7,21.2,4,33.6,9.6c8.1,3.8,11.4,4.7,22.9,6.3c13.1,1.8,26.2,2.5,43,2.1c22.4-0.5,34.4-2.5,45-7.6c11.4-5.5,15.2-13.8,11.4-24.2c-2.8-7.6-2.7-8.1,2.1-13.3c4-4.3,5.6-7.2,6.4-11.7c1-5.7-0.1-9.4-5.8-19.4c-1.8-3.2-1.4-4.4,3.1-8.9c4.8-5,6.4-8.3,6.4-13.6s-1.5-9.1-5.9-14.9c-3.9-5.2-4.5-7.2-3.2-10.8c0.5-1.3,1.4-3.9,2.1-5.7c4.5-12.6-1-22-15.7-26.5c-10.9-3.3-31.9-4.2-51.8-2c-11.9,1.2-14.5,1.3-14.8,0.5c-0.1-0.3,1.3-2.4,3.1-4.5c19.3-22.4,25.2-46.7,16-66.4C169.9,9,158.9,2.3,151.1,6.4z"/><path fill="#000000" d="M12.5,106.4c-0.7,0.5-1.5,1.6-1.9,2.4c-0.5,1.2-0.6,18.8-0.5,67.5l0.2,66l1.6,1.4l1.6,1.4h15h15l1.7-1.7l1.7-1.7v-66.4v-66.4l-1.7-1.7l-1.7-1.7H28.5C16.4,105.6,13.4,105.7,12.5,106.4z"/></g></g></g>
</svg>