<svg viewBox="0 0 169 169" fill="none" xmlns="http://www.w3.org/2000/svg">
    <g filter="url(#filter0_d_232_138)">
        <ellipse cx="84.5" cy="84.5" rx="62.5" ry="62.5" transform="rotate(90 84.5 84.5)" fill="#001433"/>
    </g>
    <path fill-rule="evenodd" clip-rule="evenodd"
          d="M89.5333 53.5333H80.4666C77.337 53.5333 74.7999 56.0704 74.7999 59.2V71.6667C74.7999 74.7963 77.337 77.3333 80.4666 77.3333H89.5333C92.6629 77.3333 95.1999 74.7963 95.1999 71.6667V59.2C95.1999 56.0704 92.6629 53.5333 89.5333 53.5333ZM80.4666 49C74.8333 49 70.2666 53.5667 70.2666 59.2V71.6667C70.2666 77.3 74.8333 81.8667 80.4666 81.8667H89.5333C95.1666 81.8667 99.7333 77.3 99.7333 71.6667V59.2C99.7333 53.5667 95.1666 49 89.5333 49H80.4666Z"
          fill="#D9D9D9"/>
    <path fill-rule="evenodd" clip-rule="evenodd"
          d="M89.5333 53.5333H80.4666C77.337 53.5333 74.7999 56.0704 74.7999 59.2V71.6667C74.7999 74.7963 77.337 77.3333 80.4666 77.3333H89.5333C92.6629 77.3333 95.1999 74.7963 95.1999 71.6667V59.2C95.1999 56.0704 92.6629 53.5333 89.5333 53.5333ZM80.4666 49C74.8333 49 70.2666 53.5667 70.2666 59.2V71.6667C70.2666 77.3 74.8333 81.8667 80.4666 81.8667H89.5333C95.1666 81.8667 99.7333 77.3 99.7333 71.6667V59.2C99.7333 53.5667 95.1666 49 89.5333 49H80.4666Z"
          fill="url(#paint0_linear_232_138)"/>
    <rect x="61.2" y="69.4" width="47.6" height="47.6" rx="10" fill="#D9D9D9"/>
    <rect x="61.2" y="69.4" width="47.6" height="47.6" rx="10" fill="url(#paint1_linear_232_138)"/>
    <path d="M90.6668 88.6667C90.6668 91.7963 88.1298 94.3333 85.0002 94.3333C81.8705 94.3333 79.3335 91.7963 79.3335 88.6667C79.3335 85.5371 81.8705 83 85.0002 83C88.1298 83 90.6668 85.5371 90.6668 88.6667Z" fill="white"/>
    <path d="M82.7335 90.9333C82.7335 90.3074 83.2409 89.8 83.8668 89.8H86.1335C86.7594 89.8 87.2668 90.3074 87.2668 90.9333V103.4C87.2668 104.026 86.7594 104.533 86.1335 104.533H83.8668C83.2409 104.533 82.7335 104.026 82.7335 103.4V90.9333Z"
          fill="white"/>
    <defs>
        <filter id="filter0_d_232_138" x="0" y="0" width="169" height="169" filterUnits="userSpaceOnUse" color-interpolation-filters="sRGB">
            <feFlood flood-opacity="0" result="BackgroundImageFix"/>
            <feColorMatrix in="SourceAlpha" type="matrix" values="0 0 0 0 0 0 0 0 0 0 0 0 0 0 0 0 0 0 127 0" result="hardAlpha"/>
            <feOffset/>
            <feGaussianBlur stdDeviation="11"/>
            <feComposite in2="hardAlpha" operator="out"/>
            <feColorMatrix type="matrix" values="0 0 0 0 0.0958333 0 0 0 0 0.700304 0 0 0 0 1 0 0 0 0.5 0"/>
            <feBlend mode="normal" in2="BackgroundImageFix" result="effect1_dropShadow_232_138"/>
            <feBlend mode="normal" in="SourceGraphic" in2="effect1_dropShadow_232_138" result="shape"/>
        </filter>
        <linearGradient id="paint0_linear_232_138" x1="79.9975" y1="103.419" x2="78.7888" y2="60.0771" gradientUnits="userSpaceOnUse">
            <stop stop-color="#39CBFF"/>
            <stop offset="0.34375" stop-color="#00ABE5"/>
            <stop offset="0.411458" stop-color="#3EC1FF"/>
            <stop offset="1" stop-color="#0073C6"/>
        </linearGradient>
        <linearGradient id="paint1_linear_232_138" x1="76.919" y1="148.213" x2="75.3494" y2="85.4332" gradientUnits="userSpaceOnUse">
            <stop stop-color="#39CBFF"/>
            <stop offset="0.34375" stop-color="#00ABE5"/>
            <stop offset="0.411458" stop-color="#3EC1FF"/>
            <stop offset="1" stop-color="#0073C6"/>
        </linearGradient>
    </defs>
</svg>
