<svg viewBox="0 0 169 169" fill="none" xmlns="http://www.w3.org/2000/svg">
    <g filter="url(#filter0_d_232_130)">
        <ellipse cx="84.5" cy="84.5" rx="62.5" ry="62.5" transform="rotate(90 84.5 84.5)" fill="#001433"/>
    </g>
    <path d="M120 83.6264C120 96.6749 104.106 107.253 84.5 107.253C64.8939 107.253 49 96.6749 49 83.6264C49 70.5779 64.8939 60 84.5 60C104.106 60 120 70.5779 120 83.6264Z" fill="url(#paint0_linear_232_130)"/>
    <path d="M110.792 109.198C111.603 109.506 112.395 108.707 112.08 107.899L107.304 95.6704C107.086 95.1101 106.425 94.8684 105.896 95.1548L94.6091 101.269C93.857 101.677 93.9303 102.779 94.7296 103.083L110.792 109.198Z"
          fill="url(#paint1_linear_232_130)"/>
    <circle cx="68.5" cy="83.5" r="3.5" fill="white"/>
    <circle cx="84.5" cy="83.5" r="3.5" fill="white"/>
    <circle cx="100.5" cy="83.5" r="3.5" fill="white"/>
    <defs>
        <filter id="filter0_d_232_130" x="0" y="0" width="169" height="169" filterUnits="userSpaceOnUse" color-interpolation-filters="sRGB">
            <feFlood flood-opacity="0" result="BackgroundImageFix"/>
            <feColorMatrix in="SourceAlpha" type="matrix" values="0 0 0 0 0 0 0 0 0 0 0 0 0 0 0 0 0 0 127 0" result="hardAlpha"/>
            <feOffset/>
            <feGaussianBlur stdDeviation="11"/>
            <feComposite in2="hardAlpha" operator="out"/>
            <feColorMatrix type="matrix" values="0 0 0 0 0.0958333 0 0 0 0 0.700304 0 0 0 0 1 0 0 0 0.5 0"/>
            <feBlend mode="normal" in2="BackgroundImageFix" result="effect1_dropShadow_232_130"/>
            <feBlend mode="normal" in="SourceGraphic" in2="effect1_dropShadow_232_130" result="shape"/>
        </filter>
        <linearGradient id="paint0_linear_232_130" x1="72.4465" y1="142.787" x2="71.285" y2="76.8208" gradientUnits="userSpaceOnUse">
            <stop stop-color="#39CBFF"/>
            <stop offset="0.34375" stop-color="#00ABE5"/>
            <stop offset="0.411458" stop-color="#3EC1FF"/>
            <stop offset="1" stop-color="#0073C6"/>
        </linearGradient>
        <linearGradient id="paint1_linear_232_130" x1="72.4465" y1="142.787" x2="71.285" y2="76.8208" gradientUnits="userSpaceOnUse">
            <stop stop-color="#39CBFF"/>
            <stop offset="0.34375" stop-color="#00ABE5"/>
            <stop offset="0.411458" stop-color="#3EC1FF"/>
            <stop offset="1" stop-color="#0073C6"/>
        </linearGradient>
    </defs>
</svg>
