<svg viewBox="0 0 169 169" fill="none" xmlns="http://www.w3.org/2000/svg">
    <g filter="url(#filter0_d_232_119)">
        <ellipse cx="84.5" cy="84.5" rx="62.5" ry="62.5" transform="rotate(90 84.5 84.5)" fill="#001433"/>
    </g>
    <circle cx="84.4998" cy="84.6975" r="31.6975" fill="#D9D9D9"/>
    <circle cx="84.4998" cy="84.6975" r="31.6975" fill="url(#paint0_linear_232_119)"/>
    <g clip-path="url(#clip0_232_119)">
        <path d="M97.7409 77.8766C97.7409 84.9676 91.9924 90.7161 84.9014 90.7161C77.8103 90.7161 72.0618 84.9676 72.0618 77.8766C72.0618 70.7855 77.8103 65.037 84.9014 65.037C91.9924 65.037 97.7409 70.7855 97.7409 77.8766Z" fill="white"/>
        <path d="M65.6421 107.568C65.6421 98.7041 72.8276 91.5185 81.6915 91.5185H88.1112C96.9751 91.5185 104.161 98.7041 104.161 107.568V118.802H65.6421V107.568Z" fill="white"/>
    </g>
    <circle cx="103.759" cy="106.364" r="11.6358" fill="#001433"/>
    <path d="M98.543 107.167L102.957 110.778L108.574 101.549" stroke="white" stroke-width="2.40741" stroke-linecap="round" stroke-linejoin="round"/>
    <defs>
        <filter id="filter0_d_232_119" x="0" y="0" width="169" height="169" filterUnits="userSpaceOnUse" color-interpolation-filters="sRGB">
            <feFlood flood-opacity="0" result="BackgroundImageFix"/>
            <feColorMatrix in="SourceAlpha" type="matrix" values="0 0 0 0 0 0 0 0 0 0 0 0 0 0 0 0 0 0 127 0" result="hardAlpha"/>
            <feOffset/>
            <feGaussianBlur stdDeviation="11"/>
            <feComposite in2="hardAlpha" operator="out"/>
            <feColorMatrix type="matrix" values="0 0 0 0 0.0958333 0 0 0 0 0.700304 0 0 0 0 1 0 0 0 0.5 0"/>
            <feBlend mode="normal" in2="BackgroundImageFix" result="effect1_dropShadow_232_119"/>
            <feBlend mode="normal" in="SourceGraphic" in2="effect1_dropShadow_232_119" result="shape"/>
        </filter>
        <linearGradient id="paint0_linear_232_119" x1="84.901" y1="136.056" x2="84.1357" y2="53.0071" gradientUnits="userSpaceOnUse">
            <stop stop-color="#39CBFF"/>
            <stop offset="0.34375" stop-color="#00ABE5"/>
            <stop offset="0.411458" stop-color="#3EC1FF"/>
            <stop offset="1" stop-color="#0073C6"/>
        </linearGradient>
        <clipPath id="clip0_232_119">
            <rect x="52.8022" y="53" width="63.3951" height="63.3951" rx="31.6975" fill="white"/>
        </clipPath>
    </defs>
</svg>
